<?xml version="1.0" encoding="utf-8"?>
<!-- Generator: Adobe Illustrator 22.0.0, SVG Export Plug-In . SVG Version: 6.00 Build 0)  -->
<svg version="1.1" id="_x35_0c81bbe-f144-4d6a-ab3d-5352da295715"
	 xmlns="http://www.w3.org/2000/svg" xmlns:xlink="http://www.w3.org/1999/xlink" x="0px" y="0px" viewBox="0 0 975.3 825.2"
	 style="enable-background:new 0 0 975.3 825.2;" xml:space="preserve">
<style type="text/css">
	.st0{opacity:0.1;fill:#1D68BD;enable-background:new    ;}
	.st1{opacity:0.1;fill:#40648E;enable-background:new    ;}
	.st2{fill:#EAECF0;}
	.st3{fill:#D3DAE1;}
	.st4{opacity:0.1;enable-background:new    ;}
	.st5{fill:#D48A9B;}
	.st6{fill:#EFC6CD;}
	.st7{fill:#FFFFFF;}
	.st8{fill:#535461;}
	.st9{fill:#3A3768;}
	.st10{fill:#434175;}
	.st11{fill:#565387;}
	.st12{fill:#EE8E9E;}
	.st13{fill:#DFE5EE;}
	.st14{fill:#603556;}
	.st15{opacity:0.1;}
	.st16{fill:#1D68BD;}
	.st17{fill:#D5E1F4;}
	.st18{fill:#FFD037;}
	.st19{fill:#65617D;}
	.st20{fill:#9D9CB5;}
</style>
<title>work time</title>
<ellipse class="st0" cx="91" cy="703.8" rx="41.4" ry="6.3"/>
<ellipse class="st0" cx="688.1" cy="712.4" rx="41.4" ry="6.3"/>
<ellipse class="st0" cx="586.1" cy="771.3" rx="41.4" ry="6.3"/>
<ellipse class="st0" cx="225.1" cy="656.4" rx="41.4" ry="6.3"/>
<ellipse class="st0" cx="237.5" cy="774" rx="237.5" ry="51.2"/>
<path class="st1" d="M942.2,568.9c-6.4,15.5-14.8,30.3-26.6,41.6c-14.3,13.8-32.2,21.4-51.2,25c-5.6,1-11.3,1.8-17,2.2
	c-15.1,1.2-30.5,0.4-45.3-1.2c-36.3-4-72-11.6-106.7-22.8c-5.7-1.8-11.4-3.8-17-5.8c-8.5-3-16.9-6.3-25.3-9.8
	c-34-14.2-69.2-32.3-105.3-26.7c-17.5,2.7-34,11-51.6,13.5c-12.3,1.6-24.9,0.7-36.8-2.6c-5.8-1.6-11.5-3.5-17-5.9
	c-12.4-5.4-24.3-12.1-35.3-20c-26.5-18.5-50.3-41.5-78.2-57.5c-30.8-17.7-64.8-26.1-99.5-32.4c-5.6-1-11.3-2-17-2.9
	c-16-2.6-32.1-5.1-48-8c-15.3-2.8-30.8-6.3-44.1-14.8c-9.5-6-17.5-14.4-24.8-23.3C82,401.1,70.4,383.3,61,364.3c-0.5-1-1-2-1.5-3
	c-14.7-30.1-24.6-63-30.6-97c-0.2-1-0.4-2-0.5-3c-5.7-33.3-7.8-67.8-7.1-102l0.1-3c0.4-16.9,1.4-33.7,3-50.3
	c1.1-11.7,2.6-23.8,8.7-33.6s15.9-16.1,25.7-21.3C102,28,143.5,21.6,190.1,32.8c7.5,1.8,14.9,3.7,22.4,5.7c5.7,1.5,11.3,3.1,17,4.7
	c39.1,10.9,78.2,22.5,118.6,26c3.9,0.3,7.8,0.6,11.7,0.8c7.7,0.4,15.5,0.4,23.2,0.2c19.9-0.6,39.8-2.6,59.4-6.1
	c5.7-1,11.3-2.1,17-3.3c24.4-5.1,48.6-11.9,72.4-19.4c4.9-1.5,9.7-3.1,14.6-4.7c10.9-3.6,21.8-7.2,32.8-10.8
	c32.7-10.6,65.5-20.3,99.3-24.2c2.9-0.3,5.8-0.6,8.7-0.9c2.8-0.2,5.5-0.4,8.3-0.6c52.5-2.8,105.5,9.8,152,35.7
	c5.8,3.2,11.4,6.6,17,10.2c7.7,5,15.2,10.4,22.4,16.2c14.8,11.8,28.7,25.3,39.3,41.6c10.3,15.8,17,33.5,20.8,52.2c0.2,1,0.4,2,0.6,3
	c5.7,30.1,3.9,62.4-2.4,92.5c-0.7,3.2-1.4,6.3-2.1,9.5c-0.2,1-0.5,2-0.7,3c-6.8,28.5-15.6,56.9-13.3,86.1c0.3,3.7,0.8,7.3,1.3,10.9
	c0.2,1,0.3,2,0.5,3c4.5,23.8,14.6,46.3,20.7,69.9C963,478.9,959.7,526.1,942.2,568.9z"/>
<path class="st0" d="M864.4,159.3h83.2c-0.2-1-0.4-2-0.6-3h-82.6V46.4c-5.6-3.6-11.2-7-17-10.2v120.1h-152V0.4
	c-2.8,0.1-5.5,0.3-8.3,0.6s-5.8,0.5-8.7,0.9v154.4h-217l-0.5-0.6L579.2,26c-10.9,3.5-21.9,7.2-32.8,10.8l-86.9,95.4V60.8
	c-5.7,1.2-11.3,2.3-17,3.3v71.3L383,70.2c-7.7,0.2-15.5,0.1-23.2-0.2l78.2,85.8l-0.5,0.6h-208V43.2c-5.7-1.6-11.3-3.2-17-4.7v117.8
	H21.3l-0.1,3h191.2v102H28.4c0.2,1,0.3,2,0.5,3h183.6v97H59.5c0.5,1,1,2,1.5,3h151.5v99.3c5.7,0.9,11.3,1.9,17,2.9V364.3h213v212
	c5.5,2.4,11.2,4.3,17,5.9V364.3h219v243.6c5.6,2,11.3,4,17,5.8V364.3h152v273.4c5.7-0.4,11.4-1.2,17-2.2V364.3h66.5
	c-0.2-1-0.4-2-0.5-3h-66v-97h77.9c0.2-1,0.5-2,0.7-3h-78.6V159.3z M847.4,159.3v102h-152v-102H847.4z M678.4,261.3h-219v-102h219
	V261.3z M229.4,159.3h210l3,2.7v99.3h-213V159.3z M229.4,361.3v-97h213v97H229.4z M459.4,361.3v-97h219v97H459.4z M847.4,361.3h-152
	v-97h152V361.3z"/>
<path class="st0" d="M774.4,89H773c0.9-0.5,1.6-1.5,1.6-2.6l0,0c0-2.1-2.5-3.8-5.6-3.8h-39.4c-3.1,0-5.6,1.7-5.6,3.8l0,0
	c0,2.1,2.5,3.8,5.6,3.8h1.3c-0.9,0.5-1.5,1.5-1.6,2.6c0,1.8,1.8,3.2,4.3,3.6h-11.4c-3.1,0-5.6,1.7-5.6,3.8s2.5,3.8,5.6,3.8h39.4
	c3.1,0,5.6-1.7,5.6-3.8c0-1.8-1.8-3.2-4.3-3.6h11.3c3.1,0,5.6-1.7,5.6-3.8S777.5,89,774.4,89z"/>
<path class="st0" d="M347.2,124.8h-1.3c0.9-0.6,1.5-1.5,1.6-2.6l0,0c0-2.1-2.5-3.8-5.6-3.8h-39.4c-3.1,0-5.6,1.7-5.6,3.8l0,0
	c0,2.1,2.5,3.8,5.6,3.8h1.3c-0.9,0.6-1.5,1.5-1.6,2.6c0,1.8,1.8,3.2,4.3,3.6h-11.3c-3.1,0-5.6,1.7-5.6,3.8s2.5,3.8,5.6,3.8h39.4
	c3.1,0,5.6-1.7,5.6-3.8c0-1.8-1.9-3.2-4.3-3.6h11.4c3.1,0,5.6-1.7,5.6-3.8C352.8,126.5,350.3,124.8,347.2,124.8z"/>
<path class="st0" d="M834.8,277.9h-1.3c0.9-0.6,1.5-1.5,1.6-2.6l0,0c0-2.1-2.5-3.8-5.6-3.8h-39.4c-3.1,0-5.6,1.7-5.6,3.8l0,0
	c0,2.1,2.5,3.8,5.6,3.8h1.3c-0.9,0.6-1.5,1.5-1.6,2.6c0,1.8,1.8,3.2,4.3,3.6h-11.4c-3.1,0-5.6,1.7-5.6,3.8s2.5,3.8,5.6,3.8h39.4
	c3.1,0,5.6-1.7,5.6-3.8c0-1.8-1.8-3.2-4.3-3.6h11.3c3.1,0,5.6-1.7,5.6-3.8S837.9,277.9,834.8,277.9z"/>
<polygon class="st2" points="227.4,601.5 688.1,653.3 688.1,667.9 226.2,614.4 "/>
<polygon class="st2" points="226.6,656.1 217.9,656.1 217.9,439 224.2,440.9 224.3,447.4 "/>
<polygon class="st3" points="230.5,652.6 226.6,656.1 224.3,447.4 224.2,440.9 228.8,440.9 228.8,447.8 "/>
<polygon class="st3" points="92.8,647 220.4,602.5 220.4,606.7 92.8,650.8 "/>
<polygon class="st2" points="95.1,660.9 92.8,650.8 220.4,606.7 220.4,615.5 "/>
<polygon class="st2" points="688.1,425.1 688.1,712 681.5,712 681.1,445.9 681.1,437.4 "/>
<polygon class="st3" points="693,423.7 693,709.6 688.1,712 688.1,425.1 "/>
<polygon class="st3" points="586.1,705.7 681.4,652.5 688.1,656.4 586.1,712 "/>
<polygon class="st2" points="589.1,723.9 586.1,712 688.1,656.4 688.1,667.9 "/>
<polygon class="st2" points="574.8,471 575.1,774 584.6,774 583.2,467.5 "/>
<polygon class="st3" points="589.1,464.7 589.1,771.5 584.6,774 583.2,467.5 583.7,467.2 "/>
<polygon class="st2" points="91.6,706.1 83.6,706.1 80.8,435.1 80.8,430.4 88.5,430.4 88.5,435.7 "/>
<polygon class="st3" points="97.2,704 91.6,706.1 88.5,435.7 88.5,430.4 94.4,430.4 94.5,436.2 "/>
<polygon class="st4" points="583.7,467.2 589.1,464.7 589.1,476.6 583.9,478.3 "/>
<polygon class="st4" points="693,423.7 693,441.9 688.1,443.6 681.1,445.9 681.1,437.4 688.1,425.1 "/>
<polygon class="st5" points="693,388.8 693,439.1 583.9,475.5 583.2,421.6 "/>
<polygon class="st6" points="79.4,385.3 222.8,358 693,388.8 583.2,421.6 "/>
<polygon class="st4" points="94.4,430.4 94.5,436.2 88.5,435.7 80.8,435.1 80.8,430.4 "/>
<polygon class="st4" points="228.8,447.8 224.3,447.4 217.9,446.9 217.9,439 224.2,440.9 228.8,440.9 "/>
<polygon class="st5" points="79.4,385.3 79.4,432.1 583.9,475.5 583.2,421.6 "/>
<polygon class="st5" points="479.4,441 413.5,441 413.5,417.1 479.4,421.7 "/>
<polygon class="st4" points="479.4,441 413.5,441 413.5,417.1 479.4,421.7 "/>
<polygon class="st4" points="325,411.9 325,449.6 577.9,468.9 577.9,428.6 479.2,423 469.5,431.8 429.2,429 414.9,418.5 "/>
<polygon class="st7" points="323.6,410.4 323.6,448.2 576.5,467.5 576.5,427.2 477.9,421.6 468.1,430.4 427.8,427.6 413.5,417.1 "/>
<polygon class="st5" points="167.5,400.3 227.4,404.5 226.6,423.5 187.6,423.5 161.5,413.2 "/>
<polygon class="st4" points="167.5,400.3 227.4,404.5 226.6,423.5 187.6,423.5 161.5,413.2 "/>
<polygon class="st4" points="87.8,395.1 87.8,429 317.3,447.2 317.3,411.1 228.8,405.9 219.3,412.9 183.6,410.8 168.9,401.7 "/>
<polygon class="st7" points="86.4,393.7 86.4,427.6 315.9,445.8 315.9,409.8 227.4,404.5 217.9,411.5 182.2,409.4 167.5,400.3 "/>
<polygon class="st4" points="96.7,649.5 98.2,648.9 97.4,660.1 96.7,660.4 "/>
<polygon class="st4" points="577.9,393.8 610.1,395.9 556.8,411.9 529.7,409.9 "/>
<polygon class="st7" points="577.9,392.4 610.1,394.5 556.8,410.4 529.7,408.5 "/>
<path class="st3" d="M574.1,396c1.3-0.5,2.6,0.5,4,0.7c0.8,0.1,1.6,0,2.3,0.1c1.6,0.2,3.2,1.3,4.7,0.7"/>
<path class="st3" d="M572.4,397c1.3-0.5,2.6,0.5,4,0.7c0.8,0.1,1.6,0,2.3,0.1c1.6,0.2,3.1,1.3,4.6,0.7"/>
<path class="st3" d="M568.6,398.9c1.3-0.5,2.6,0.5,4,0.7c0.8,0.1,1.6,0,2.3,0.1c1.6,0.2,3.1,1.3,4.6,0.7"/>
<circle class="st8" cx="50" cy="737.3" r="9.4"/>
<circle class="st8" cx="66.8" cy="774" r="9.4"/>
<circle class="st8" cx="234.3" cy="780.6" r="9.4"/>
<circle class="st8" cx="271.8" cy="732.7" r="9.4"/>
<rect x="154.1" y="571.4" class="st8" width="11.8" height="73.5"/>
<rect x="154.1" y="633" class="st4" width="11.8" height="11.9"/>
<rect x="151.8" y="635.8" class="st9" width="16.3" height="81.5"/>
<path class="st9" d="M269.7,716.8L163,712.4v17.2h123.9C284.3,722.2,277.5,717.1,269.7,716.8z"/>
<path class="st9" d="M56.3,716.8l106.7-4.4v17.2H39.2C41.7,722.2,48.5,717.1,56.3,716.8z"/>
<path class="st9" d="M151.8,714.2l-85.2,42c-7.4,3.6-12,11.1-12,19.3v1.3l99.5-43.4l14-1l82.7,52.8l0,0c1.1-8-2.4-15.9-8.9-20.5
	l-73.8-52.3L151.8,714.2z"/>
<path class="st4" d="M165.8,571.4v7.9c-2.1,0.1-4.2,0.1-6.3,0.1c-1.9,0-3.7,0-5.5-0.1v-8H165.8z"/>
<ellipse class="st9" cx="159.5" cy="564" rx="43.4" ry="12.7"/>
<path class="st4" d="M202.5,564c-0.1,1.4-0.8,2.8-1.9,3.7c-5.4,5.2-21.9,9-41.5,9c-19.2,0-35.4-3.6-41.2-8.7c-1.3-0.9-2.1-2.4-2.2-4
	c0-7,19.4-12.7,43.4-12.7S202.5,557,202.5,564z"/>
<path class="st4" d="M202.9,564c-0.1,1.4-0.8,2.8-1.9,3.7c-5.5-1.4-9.3-2.5-9.3-2.5s-38.2,2.1-73.4,2.9c-1.3-0.9-2.1-2.4-2.2-4
	c0-7,19.4-12.7,43.4-12.7S202.9,557,202.9,564z"/>
<path class="st9" d="M50,396.8c0,0,14.4,39.2,13.6,62.6S51.7,527,51.7,527s-11.2,35.7,17.5,38.8s122.5-2.1,122.5-2.1
	s35,10.5,46.2,5.9c4.4-1.8,8.1-5.6,11.1-9.7c6.6-9.1,4.7-21.8-4.4-28.4c-0.3-0.2-0.6-0.4-0.9-0.6c-5.2-3.3-10.9-5.7-16.9-7.2
	c-1.3-0.3-2.6-0.5-3.9-0.5l-122.3,2.4c0,0-13.6-2.1-11.2-15.7s6.6-55.6,6.6-55.6s0.7-51.1-23.8-65.4S50,396.8,50,396.8z"/>
<path class="st4" d="M50,396.7c0,0,14.4,39.2,13.6,62.6s-11.9,67.5-11.9,67.5s-11.2,35.7,17.5,38.8s122.5-2.1,122.5-2.1
	s35,10.5,46.2,6c4.4-1.8,8.1-5.7,11.1-9.7c6.6-9.1,4.7-21.8-4.4-28.5c-0.3-0.2-0.6-0.4-0.9-0.6c-5.2-3.2-10.9-5.7-16.9-7.2
	c-1.3-0.3-2.6-0.5-3.9-0.5l-122.3,2.4c0,0-13.6-2.1-11.2-15.8s6.6-55.6,6.6-55.6s0.7-51.1-23.8-65.4S50,396.7,50,396.7z"/>
<path class="st9" d="M52.8,395.4c0,0,14.4,39.2,13.6,62.6c-0.7,23.4-11.9,67.5-11.9,67.5S43.4,561.3,72,564.4s122.4-2.1,122.4-2.1
	s35,10.5,46.2,6c4.4-1.8,8.1-5.7,11.1-9.7c6.6-9.1,4.7-21.8-4.4-28.4c-0.3-0.2-0.6-0.4-0.9-0.6c-5.2-3.3-10.9-5.7-16.9-7.3
	c-1.3-0.3-2.6-0.5-3.9-0.5l-122.3,2.4c0,0-13.6-2.1-11.2-15.7s6.6-55.6,6.6-55.6s0.7-51.1-23.8-65.4S52.8,395.4,52.8,395.4z"/>
<path class="st10" d="M301,732.3V745c0,0,60.4,1.1,73.7,1.1s31.6-6.5,32.7-11.8s-15.3-9.6-21.4-9.8s-6.3-2.6-14.2-6.8
	c-4.4-2.3-11.2-9.1-16.2-14.6c-3.9-4.2-6.7-7.7-6.7-7.7s-32.5-0.7-41.9,4.6c-2.2,1.2-3.6,3.6-4.7,6.5
	C299.1,716.3,301,732.3,301,732.3z"/>
<path class="st4" d="M302.5,706.5c6.8-2.4,46.7-3.3,53.3-3.4c-3.9-4.2-6.7-7.7-6.7-7.7s-32.5-0.7-41.9,4.6
	C305,701.2,303.5,703.6,302.5,706.5z"/>
<path class="st11" d="M127.2,504.8l3.5,2.1l1.3,0.8l5.1,3.1c27.4,16.5,102.2,61.3,106.3,61c1.1-0.1,4.3-0.6,8.7-1.3
	c1.2-0.2,2.5-0.4,3.8-0.6c17.1-2.8,45.6-8,48.8-9.4c4.4-2,3.5,6.8,1.7,14.2s-3,43-1.1,47.6s1.1,12,1.1,12l-2.6,39.9l1.8,8.5
	c0,0-5.9,4.8-3.5,7.6s0.2,15.1,0.2,15.1c7-2.6,54.3-3.5,54.3-3.5s-2-17.5-0.2-21.6s0.4-28.8,0.4-28.8s1.1-18.8-0.9-23.1
	s0.6-32.3,0.6-32.3s1.8-16.6,2.2-50.4s-19.2-34.9-19.2-34.9s-2.6-0.2-6.6-0.6c-7.8-0.8-20.7-2.2-29.4-4c-1.8-0.4-3.5-0.8-5.2-1.4
	c-10.7-3.6-46.7-3.8-52.6-1.2c-5.7,2.5-11.3,0.2-11.8,0l0,0l-4.6-7.4l-43.8,3.7l-4.6,0.4l-43.1,3.7l-3,0.3L127.2,504.8z"/>
<path class="st4" d="M302.6,538.2c12.7,6.2,24.8-15.8,30.5-28.2c-7.8-0.8-20.7-2.2-29.4-4C298,515.6,290.4,532.3,302.6,538.2z"/>
<path class="st12" d="M264.4,389.8c0.3,1.5,0.8,2.9,1.5,4.3c4.7,9.5,18.3,29.1,18.3,29.1c4,2.5,7.5,6,10,10
	c3.7,6.3,4.8,21.2,4.8,21.2s8.3,32.9,12.2,37.5c2,2.3,1.1,3.7-0.3,4.4c-2.8,1.6-5.2,3.8-6.9,6.5c-5.7,9.2-14.9,27.4-2,33.7
	c17.5,8.5,33.8-36.1,33.8-36.1s-3.3-31.6-4.1-37.1s-6.1-27.9-6.1-27.9s-3.7-9.6-5.9-16.4s-8.7-14.6-8.7-14.6s-11.8-23.6-15.1-27
	c-1.5-1.6-3.6-3.7-5.5-5.4c-2.1-2-3.9-3.6-3.9-3.6S264.2,384.6,264.4,389.8z"/>
<path class="st10" d="M116.5,729.7l39.7,17.7c0,0,51.4,1.1,60.4-1.3s7-12.4-4.8-14.4s-14.6-7.2-18.5-9.6
	c-2.6-1.6-12.1-12.1-17.9-18.7c-2.8-3.2-4.8-5.5-4.8-5.5s-7.6-20.3-28.8-15.7c-3.9,0.8-7.4,2.7-10.3,5.5
	c-11.4,10.6-12.4,31.5-12.4,31.5L116.5,729.7z"/>
<path class="st4" d="M132,507.7l5.1,3.1c27.4,16.5,102.2,61.3,106.3,61c1.1-0.1,4.3-0.6,8.7-1.3c1.2-0.2,2.5-0.4,3.8-0.6l0.1-0.2
	c2.2-3.8,3.9-8,5-12.2c4.6-17.5-18.1-30.8-18.1-30.8l-4.8-3.7c-5.5-9.2-44.7-17.9-44.7-17.9l-5.1-3.5l-2.7-1.8l-0.7-0.5l-6.1-4.1
	l-30.8,2.2l-9.1,5.9l-1,0.6l-3.3,2.2L132,507.7z"/>
<path class="st4" d="M131.5,687.6c8.4,28.9,43.2,19.5,43.2,19.5l0.7-3.7c-2.8-3.2-4.8-5.5-4.8-5.5s-7.6-20.3-28.8-15.7
	C137.9,683,134.4,684.9,131.5,687.6z"/>
<path class="st11" d="M122.4,556.5c12.9,0,46,15.5,46,15.5c6.8,5.2,15.9,3.5,15.9,3.5s-16.1,16.4-15.7,23.1s-9.2,17.9-9.2,17.9
	l-29.7,58.7c2.2,41.7,44.9,30.1,44.9,30.1l1.8-9.8c2.6-1.3,6.5-14.4,6.5-14.4s0-5.2,2.6-6.8s8.1-17.2,8.1-17.2s11.8-19.8,11.1-22.5
	s8.5-15.9,8.5-15.9s15.5-15.3,14.8-18s12.5-16.7,12.5-16.7c4.7-3.7,8.7-8.3,11.6-13.5c2.2-3.8,3.9-7.9,5-12.2
	c3.7-14.1-10.3-25.4-15.9-29.3c-1.4-0.9-2.2-1.4-2.2-1.4l-4.8-3.7c-2.5-4.2-12-8.3-21.5-11.5c-6.9-2.3-13.9-4.2-18.4-5.3
	c-3-0.7-4.8-1.1-4.8-1.1l-5.1-3.4l-1.8-1.2l-1.6-1.1L175,496l-13.7,1l-17.1,1.2l-9.1,5.9l-4.4,2.8l-17,11c0,0-0.4,4.2-0.6,9.8
	c0,0.4,0,0.9,0,1.3C112.8,540.4,114.1,556.5,122.4,556.5z"/>
<path class="st12" d="M188,312.1l4.6,16.4c0,0,8.1,28.1,9,30.1s22,21.8,22.9,22.2s12.4,7,12.4,7s0.9-36,0-46.5
	c-0.1-2.3,0.1-4.6,0.6-6.9c1.4-8.2,4.9-20.2,7.8-29.5c2.4-7.8,4.5-13.6,4.5-13.6s-51-2.2-49.3,2.8c0.7,1.9,0.4,5.1-0.2,8.2
	c-1.1,5.2-3.2,10.5-4.6,10.1c-1.3-0.3-2.7-0.5-4-0.5C189.7,312.1,188,312.1,188,312.1z"/>
<path class="st4" d="M200.3,302.5c12.8,10.7,31.1,11.7,45,2.5c2.4-7.8,4.5-13.6,4.5-13.6s-51-2.2-49.3,2.8
	C201.1,296.2,200.9,299.3,200.3,302.5z"/>
<path class="st12" d="M186.7,272.2c0,20.8,16.9,37.8,37.7,37.8s37.8-16.9,37.8-37.7s-16.9-37.8-37.7-37.8c0,0,0,0,0,0
	c-20.7-0.1-37.7,16.6-37.7,37.4C186.7,272,186.7,272.1,186.7,272.2z"/>
<path class="st4" d="M188,312.1l4.6,16.4c0,0,8.1,28.1,9,30.1s22,21.8,22.9,22.2s12.4,7,12.4,7s0.9-36,0-46.5
	c-0.1-2.3,0.1-4.6,0.6-6.9l-3,12.1l0.2,24.2l1.7,1.3l-3.9,5.9v-4.4c0,0-14-13.5-16.1-19.2s-10-15.9-10-15.9s-9-15-9.2-17.6
	c-0.2-2-3.9-6.8-5.6-8.7C189.7,312.1,188,312.1,188,312.1z"/>
<path class="st4" d="M264.4,389.8c0.3,1.5,0.8,2.9,1.5,4.3c4.8-0.5,21-3.5,24.6-22.1c-2.1-2-3.9-3.6-3.9-3.6
	S264.2,384.6,264.4,389.8z"/>
<path class="st4" d="M113,529c4.4-3.1,8.6-7.4,11.1-8.5c3.7-1.8,9.4-7.4,9.4-7.4s1.4-1,3.6-2.3c4.1-2.4,10.7-5.8,15.8-6.2
	c4.5-0.4,19.7-1.3,31.6-2.1l15.5-1c0,0,14.2-5,20.3-1.8c4.4,2.2,9,3.9,13.7,5c0,0,0-0.5,0-1.3l0,0l-4.6-7.4l-48.4,4.1l-6.1-4.1
	l-30.8,2.2l-9.1,5.9l-7.9,0.7l3.5,2.1l-17,11C113.6,517.9,113.1,522.7,113,529z"/>
<path class="st13" d="M106.6,531c2.3-0.7,4.5-1.8,6.4-3.3l0,0c4.4-3.1,8.6-7.3,11.1-8.5c3.7-1.8,9.4-7.4,9.4-7.4s11.6-7.9,19.4-8.5
	c2.1-0.2,6.6-0.5,12-0.8l17.8-1.1l9.2-0.6l8.1-0.5c0,0,14.2-5,20.3-1.8c4.4,2.2,9,3.9,13.7,5c0,0,0.2-15.3,2-21.6s4.1-17.9,4.1-17.9
	s2-15.9,3.9-23.1s9.6-47.3,13.5-50s6.1,2,6.1,2s26.2-0.4,26.6-29.2c0,0-12.2-12.2-13.1-15.3s-12.4-14.4-12.4-14.4s-6.5-12.2-14-12.4
	c-3.5-0.2-7-0.1-10.5,0.3l-6.3,25.6l0.2,24.2l1.8,1.3l-3.9,5.9v-4.3c0,0-14-13.5-16.1-19.2s-10-16-10-16s-8.9-15-9.2-17.6
	s-6.3-9.6-6.3-9.6c-1.2-0.1-2.5-0.1-3.7,0c-0.6,0-1.1,0-1.6-0.2c-3.5-1.1-7.3-1.3-10.9-0.6c-7.5,1.6-19,4.4-22.2,7.9
	c-4.8,5.2-11.8,10.3-19.6,32.1l42.3,15.3l-3.6,6.9l-33.7,64c0,0-1.1,1.8-2.6,4.2l0,0c-2,3.1-4.6,7.1-6.3,9.3
	c-3.1,3.9-2.2,16.4-2.2,16.4s-0.6,5.9-2.8,8.1s-1.8,10.2-1.8,10.2l-5.7,21.2c0,0-5.2,4.8-5.2,7s-4.1,8.3-4.1,8.3
	S100.3,532.5,106.6,531z"/>
<path class="st4" d="M134.8,441.6L134.8,441.6c0.3,1.2,0.5,2.4,0.7,3.6c0,0,17.2,40.4,19.4,42.8c0.7,0.7,3.2,4.4,6.4,9l3.6,5.4
	c6.6,9.8,14,20.9,14,20.9l16.1,14.2c0,0,35.1,2.8,46.3-8.6c-1.4-0.9-2.2-1.4-2.2-1.4l-4.8-3.7c-2.5-4.2-12-8.3-21.5-11.5
	c-8.8,0.1-16.1,0.8-16.1,0.8l-2.3-6.1l-2.4-6.3l-12.2-32.1c0,0-7.9-40.6-10.5-42.5s-2-8.1-2-8.1s4.8-17.2,3-19.6s2.8-20.1,2.8-20.1
	c-0.5-1.7-1.2-3.4-2.1-4.9l-33.7,64C137.4,437.4,136.3,439.2,134.8,441.6z"/>
<path class="st12" d="M173.6,376.9c0,0-4.6,17.7-2.8,20.1s-3.1,19.6-3.1,19.6s-0.6,6.1,2,8.1s10.5,42.5,10.5,42.5l16.9,44.5
	c0,0,52.9-5.2,47.4,11.3s-49.1,13.1-49.1,13.1L179.3,522c0,0-21.8-32.9-24-35.3s-19.4-42.8-19.4-42.8s-0.9-8.1-4.6-12.2
	c-3.7-4.1-0.9-11.1-0.9-11.1s-4.6-52.8,0.2-59.1C135.5,355.1,168.6,358,173.6,376.9z"/>
<path class="st4" d="M330.1,546.7c0,0-13.8,4.6-17.4,11.1S330.1,546.7,330.1,546.7z"/>
<path class="st4" d="M323.1,532.3c-0.4,0.7-18.8,19.1-17.7,23.6S323.1,532.3,323.1,532.3z"/>
<path class="st4" d="M222.1,545.4c0,0-20.5,9.7-22.3,13.9S222.1,545.4,222.1,545.4z"/>
<path class="st4" d="M220.8,557.8c0,0-18.5,7.8-21,9.8S220.8,557.8,220.8,557.8z"/>
<path class="st4" d="M212.2,574.6c0,0-8.2,6.1-12.7,1.3S212.2,574.6,212.2,574.6z"/>
<path class="st4" d="M243,415.3c-0.4,0.7-27.7,49.7-34.9,53.5S243,415.3,243,415.3z"/>
<path class="st4" d="M241.7,433.9c0,1.1-26.6,58-31,58.7S241.7,433.9,241.7,433.9z"/>
<path class="st4" d="M140.5,470.5c0,0-12.8,27.5-17.8,29.1S140.5,470.5,140.5,470.5z"/>
<path class="st4" d="M138.3,458.3c0,0-4.4,9.6-7.1,9.6S138.3,458.3,138.3,458.3z"/>
<path class="st4" d="M186.7,272.2c0,4.5,0.8,9,2.4,13.2c-0.6-19.7,14.9-36.1,34.6-36.6c0.9,0,1.7,0,2.6,0c1.8,0.1,4,0.5,4.7,2.2
	c0.3,0.9,0.4,1.8,0.5,2.8c0.5,4.2,4.9,6.9,8.9,8.3s8.5,2.3,11.5,5.4c2.7,2.9,3.4,6.9,4.8,10.6c0.7,2.3,2,4.3,3.7,6
	c6.5-19.8-4.3-41.1-24.1-47.7s-41.1,4.3-47.7,24.1C187.4,264.2,186.7,268.2,186.7,272.2L186.7,272.2z"/>
<path class="st14" d="M257.2,238.1c-3.1-4.2-8.6-5.7-13.4-7.8c-12-5.4-20.8-16.1-23.8-28.9c-3.9,5.8-3.3,13.5,1.5,18.6
	c-8.7-0.6-18.3-1.6-24.2-8c-1.3,4.6,2.7,9.9,0.5,14.1c-1.9,3.7-7,4-10.3,6.5c-3.5,2.6-4.7,7.4-4.9,11.8s0.2,8.9-1.1,13.1
	c-1,3.2-3,6.1-3.2,9.5c0,2.5,0.5,4.9,1.6,7.2c2.5,6,5.8,11.5,9.9,16.5c-4.1-19.3,8.3-38.2,27.6-42.3c2.9-0.6,5.9-0.9,8.9-0.7
	c1.8,0.1,4,0.5,4.7,2.2c0.3,0.9,0.4,1.8,0.5,2.8c0.5,4.2,4.9,6.9,8.9,8.3s8.5,2.3,11.5,5.4c2.7,2.9,3.4,6.9,4.8,10.6s3.9,7.5,7.8,8
	c0.9-5.5,1.8-11,1.2-16.6c-0.6-6-4.6-9.3-6-14.5C258.1,248.2,261,243.2,257.2,238.1z"/>
<path class="st4" d="M146.6,343.8l-13.7,8.3c0,0-3.9,13.3-7,15c0,0,27.5-15.3,48.2,19.9c0,0-0.6-4.6,2.2-6.8s2.2-11.6,2.2-11.6
	c0.8-1.5,1.4-3,2-4.6C182.4,359.3,172.1,331.8,146.6,343.8z"/>
<path class="st13" d="M146.1,342.9l-13.8,8.3c0,0-3.9,13.3-7,15.1c0,0,27.5-15.3,48.2,19.9c0,0-0.6-4.6,2.2-6.8s2.2-11.6,2.2-11.6
	c0.8-1.5,1.4-3,2-4.6C181.9,358.4,171.6,330.9,146.1,342.9z"/>
<g class="st15">
	<path d="M198.5,222.9c0-3.6-2.2-7.5-1.1-11l0.2,0.2C197.8,215.8,199.8,219.6,198.5,222.9z"/>
	<path d="M183,241.7c-0.2,4,0.1,8-0.8,11.9c0.3-3,0.1-6.2,0.3-9.3c0.1-1.5,0.3-2.9,0.6-4.3C183.1,240.6,183,241.1,183,241.7z"/>
	<path d="M178.3,266.9c0.1-0.8,0.2-1.6,0.4-2.3c0,2.4,0.6,4.7,1.6,6.9c2.3,5.4,5.3,10.6,8.9,15.2c0.1,1.3,0.3,2.6,0.6,3.9
		c-4.1-5-7.5-10.5-9.9-16.5C178.8,271.8,178.3,269.3,178.3,266.9z"/>
	<path d="M221.9,217.3c-0.8-0.1-1.7-0.1-2.5-0.2c-1.9-3.4-2.4-7.5-1.5-11.3C217.6,210.1,219,214.2,221.9,217.3z"/>
	<path d="M198,257.4c7.2-8.3,17.8-13,28.8-12.6c1.8,0.1,4,0.5,4.8,2.2c0.3,0.9,0.4,1.8,0.5,2.8c0.5,4.2,4.8,6.9,8.9,8.3
		s8.5,2.3,11.5,5.4c2.7,2.9,3.5,6.9,4.8,10.6s3.9,7.5,7.7,8l-0.4,2.6c-3.9-0.4-6.4-4.3-7.8-8s-2.1-7.8-4.8-10.6
		c-2.9-3.1-7.4-4-11.5-5.4s-8.3-4-8.9-8.3c0-0.9-0.2-1.9-0.5-2.8c-0.8-1.7-2.9-2.1-4.7-2.2c-17.6-0.8-33.1,11.3-36.5,28.6
		C190.7,269.2,193.5,262.7,198,257.4z"/>
</g>
<polygon class="st9" points="431.8,339.7 431.8,378.8 394.4,375.8 394.4,339.7 "/>
<polygon class="st4" points="431.8,375.6 431.8,378.8 394.4,375.8 394.4,372.6 "/>
<path class="st9" d="M443.2,381.6l-58.2-3l0,0c0-3.1,2.6-5.7,5.7-5.7h0l46.8,3C440.7,375.9,443.2,378.4,443.2,381.6L443.2,381.6
	L443.2,381.6z"/>
<path class="st9" d="M514.4,350.4l-201.5-6c-3.4,0-6.1-2.7-6.1-6.1c0,0,0,0,0,0v-119c0-3.4,2.7-6.1,6.1-6.1c0,0,0,0,0,0l201.5,6
	c3.4,0,6.1,2.7,6.1,6.1v119C520.5,347.7,517.8,350.4,514.4,350.4L514.4,350.4z"/>
<polygon class="st16" points="515.5,341.7 311.3,335.7 311.3,228.5 515.5,234.5 "/>
<ellipse class="st7" cx="413.4" cy="222.9" rx="1.8" ry="1.8"/>
<polygon class="st4" points="431.8,347.1 394.4,346.5 394.4,347.7 431.8,347.7 "/>
<polygon class="st4" points="363.8,383.9 414.9,387.2 404,402.9 347.8,396.9 "/>
<polygon class="st9" points="362.8,382.9 413.9,386.2 403,401.9 346.8,395.9 "/>
<polygon class="st17" points="365.1,384 409.6,386.8 400.1,399.5 351.1,394.6 "/>
<ellipse class="st0" cx="883.4" cy="794.4" rx="64.2" ry="9.8"/>
<path class="st16" d="M919.5,561.9c0,0,7.1,9.3-3.3,23.4s-19,26-15.5,34.8c0,0,15.7-26.2,28.5-26.5S933.6,577.6,919.5,561.9z"/>
<path class="st4" d="M919.5,561.9c0.6,0.9,1.1,1.9,1.4,2.9c12.5,14.7,19.2,28.4,7.2,28.7c-11.2,0.3-24.6,20.3-27.8,25.4
	c0.1,0.4,0.2,0.8,0.4,1.2c0,0,15.7-26.2,28.5-26.5S933.6,577.6,919.5,561.9z"/>
<path class="st18" d="M932.8,573.8c0,3.3-0.4,6-0.8,6s-0.8-2.7-0.8-6s0.5-1.7,0.9-1.7S932.8,570.5,932.8,573.8z"/>
<path class="st18" d="M937.3,577.7c-2.9,1.6-5.4,2.5-5.6,2.1s1.9-2,4.8-3.6s1.8-0.4,2,0S940.2,576.1,937.3,577.7z"/>
<path class="st16" d="M881.8,561.9c0,0-7.1,9.3,3.3,23.4s19,26,15.5,34.8c0,0-15.7-26.2-28.5-26.5S867.7,577.6,881.8,561.9z"/>
<path class="st4" d="M881.8,561.9c-0.6,0.9-1.1,1.9-1.5,2.9c-12.5,14.7-19.2,28.4-7.1,28.7c11.2,0.3,24.6,20.3,27.8,25.4
	c-0.1,0.4-0.2,0.8-0.4,1.2c0,0-15.7-26.2-28.5-26.5S867.7,577.6,881.8,561.9z"/>
<path class="st18" d="M868.6,573.8c0,3.3,0.4,6,0.8,6s0.8-2.7,0.8-6s-0.5-1.7-0.9-1.7S868.6,570.5,868.6,573.8z"/>
<path class="st18" d="M864,577.7c2.9,1.6,5.4,2.5,5.6,2.1s-2-2-4.8-3.6s-1.7-0.4-2,0S861.1,576.1,864,577.7z"/>
<ellipse class="st0" cx="900.7" cy="680" rx="74.6" ry="11.5"/>
<path class="st19" d="M939.1,607.5l-0.4,2.9l-0.5,4.1l-0.2,1.7l-0.5,4.1l-0.2,1.7l-0.5,4.1l-5.7,46.8c-0.5,4.2-7.3,7.4-15.6,7.4
	h-29.7c-8.2,0-15-3.2-15.6-7.4l-5.7-46.8l-0.5-4.1l-0.2-1.7l-0.5-4.1l-0.2-1.7l-0.5-4.1l-0.3-2.9c-0.3-2.4,3.4-4.4,8.1-4.4H931
	C935.6,603.1,939.3,605.1,939.1,607.5z"/>
<polygon class="st20" points="938.7,610.4 938.2,614.5 863.1,614.5 862.6,610.4 "/>
<polygon class="st20" points="938,616.2 937.5,620.4 863.8,620.4 863.3,616.2 "/>
<polygon class="st20" points="937.3,622.1 936.8,626.2 864.5,626.2 864,622.1 "/>
</svg>
